<?xml version="1.0" encoding="utf-8"?>
<svg version="1.1" id="Capa_1" x="0px" y="0px" viewBox="0 0 490 490" style="enable-background:new 0 0 490 490;" xmlns="http://www.w3.org/2000/svg">
  <g>
    <polygon points="128.297,222.899 146.077,289.622 165.188,289.622 186.871,200.378 168.732,200.378 155.034,262.72 &#10;&#9;&#9;139.378,200.378 117.949,200.378 101.635,261.673 88.177,200.378 69.724,200.378 91.033,289.622 110.577,289.622 &#9;"/>
    <polygon points="228.262,289.622 245.982,222.899 263.762,289.622 282.873,289.622 304.556,200.378 286.417,200.378 &#10;&#9;&#9;272.719,262.72 257.063,200.378 235.634,200.378 219.32,261.673 205.862,200.378 187.409,200.378 208.718,289.622 &#9;"/>
    <polygon points="345.947,289.622 363.667,222.899 381.447,289.622 400.558,289.622 422.241,200.378 404.102,200.378 &#10;&#9;&#9;390.404,262.72 374.748,200.378 353.319,200.378 337.005,261.673 323.547,200.378 305.094,200.378 326.403,289.622 &#9;"/>
  </g>
  <g/>
  <g/>
  <g/>
  <g/>
  <g/>
  <g/>
  <g/>
  <g/>
  <g/>
  <g/>
  <g/>
  <g/>
  <g/>
  <g/>
  <g/>
</svg>